<?xml version="1.0" encoding="utf-8"?>
<!-- Generator: Adobe Illustrator 16.0.0, SVG Export Plug-In . SVG Version: 6.00 Build 0)  -->
<!DOCTYPE svg PUBLIC "-//W3C//DTD SVG 1.1//EN" "http://www.w3.org/Graphics/SVG/1.1/DTD/svg11.dtd">
<svg version="1.1" id="Calque_1" xmlns="http://www.w3.org/2000/svg" xmlns:xlink="http://www.w3.org/1999/xlink" x="0px" y="0px"
	 width="400px" height="100px" viewBox="0 0 461.902 151.327" enable-background="new 0 0 461.902 151.327"
	 xml:space="preserve">
<path d="M461.902,151.327c-31.71-17.436-46.761-48.532-61.476-78.628c-12.059-25.124-23.447-48.572-43.547-60.966
	c-24.787-15.074-46.227-13.064-54.602-8.04c-4.354,2.68-4.689,5.695-4.689,7.034c0.336,1.34,1.006,4.021,5.025,5.695
	c10.049,4.354,19.764,15.409,18.758,21.438c-0.67,4.02-6.363,5.359-11.055,5.694c-2.68,0.335-4.354,1.34-5.023,3.015
	c-1.676,3.685,1.34,8.04,6.029,14.404c5.359,7.704,13.064,18.089,12.395,27.468c-0.336,7.705-3.35,13.734-8.375,17.084
	c-5.359,3.686-13.064,4.355-20.1,2.011c-13.398-4.355-19.762-14.404-26.797-25.794c-8.375-13.398-17.754-28.473-40.867-39.862
	c-23.113-11.054-42.877-7.704-47.232,0c-1.676,2.68-1.34,7.035,3.686,10.05c8.373,5.024,12.059,10.384,11.725,13.063
	c0,1.675-2.346,2.345-4.021,3.016c-2.68,1.005-4.689,2.345-5.359,4.354c-1.674,4.355,1.34,9.714,5.695,17.084
	c3.686,6.029,7.705,12.729,9.715,20.099c2.68,10.719,2.01,19.764-3.016,26.798c-7.111,9.719-20.252,13.563-27.451,14.982h-69.314
	c2.882-4.206,5.056-9.194,6.367-14.921c2.543-11.04-0.141-20.87-6.666-27.054l7.199-21.242l-14.023,13.248l-26.398,0.212
	l27.418,11.158c2.645,7.402-0.076,13.431-5.479,18.772c-5.713,5.546-12.891,5.145-18.293,1.343
	c-1.184-0.782-2.213-1.666-3.344-2.705c0.521-0.565,0.938-1.286,1.613-1.954c4.525-5.656,12.865-9.587,12.865-9.587
	c0.883-1.028-0.145-1.912-1.639-2.489c0,0-12.43-3.635-25.256-0.763c-0.982,0.201-1.965,0.402-2.846,0.759
	c-15.539-10.729-30.949-16.86-50.09-21.205c-1.807-0.372-3.57,1.013-3.426,2.926c0.601,20.691,13.286,40.515,29.316,53.502
	 M50.598,121.82c-2.633-0.272-4.958-0.079-7.182,0.27c-1.184-0.781-2.109-1.51-2.83-1.928c-0.359-0.208-0.516-0.105-0.467,0.308
	c0.152,0.569,0.406,1.294,0.764,2.174c-2.371-0.892-3.707-2.241-4.789-2.868c-0.359-0.208-0.516-0.106-0.467,0.308
	c0.256,0.725,0.813,2.587,1.682,4.245c-2.473-1.047-3.861-2.14-5.047-2.921c-0.359-0.209-0.516-0.106-0.467,0.308
	c0.051,0.413,0.256,0.724,0.406,1.293c0,0-0.053,0.258,0.049,0.414c0.256,0.724,0.813,2.587,1.682,4.245
	c-2.166-0.581-4.852-0.596-5.938-0.551c-0.414,0.05-0.568,0.152-0.209,0.36c1.029,0.884,2.572,1.875,4.264,4.105
	c-1.805-0.372-4.078-0.437-4.904-0.338c-0.414,0.05-0.568,0.152-0.209,0.36c0.869,1.658,2.414,2.648,4.158,4.621
	c-1.445-0.163-3.047-0.224-3.719-0.228c-0.412,0.049-0.568,0.152-0.207,0.36c1.129,1.04,2.83,1.927,4.727,4.47
	c0.352,1.552,0.705,3.104,1.316,4.708c0.355,0.88-0.885,1.028-1.655,0.197c-1.282-1.609-2.563-3.218-3.69-4.929
	c0.826-0.099,1.396-0.25,1.809-0.3c0.156-0.103,0.313-0.205,0.107-0.516c-1.082-0.626-2.834-1.256-5.043-3.593
	c-0.307-0.467-0.613-0.934-0.922-1.4c1.086-0.045,1.967-0.402,2.535-0.554c0.156-0.103,0.311-0.206,0.105-0.516
	c-1.184-0.782-3.193-1.465-5.811-4.424c0,0,3.618-0.6,4.498-0.956c0.414-0.05,0.467-0.308,0.107-0.516
	c-1.545-0.99-4.07-1.779-7.201-5.517c2.113,0.838,5.572,1.013,6.814,0.864c0.412-0.049,0.568-0.151,0.207-0.359
	c-1.49-1.249-6.16-6.647-5.797-7.11c4.645,0.956,6.754,2.466,8.299,3.456c0.359,0.209,0.516,0.106,0.465-0.307
	c-0.199-0.983-1.064-3.313-2.037-5.126c3.658,1.829,5.457,3.544,6.689,4.739c0.463,0.363,0.516,0.105,0.568-0.152
	c0.004-0.672-0.09-2.17-0.443-3.722c3.297,1.62,4.477,3.073,5.506,3.957c0.359,0.209,0.516,0.106,0.311-0.205
	c-0.051-0.413-0.096-1.498-0.297-2.481c0.258,0.054,3.498,2.604,4.424,3.332c0.361,0.208,0.516,0.105,0.313-0.206
	c-0.051-0.414,0.057-0.929-0.197-1.654c2.371,0.892,4.896,1.681,7.371,2.728C51.379,120.637,51.631,122.034,50.598,121.82z"/>
</svg>
